M48
;DRILL file {KiCad 5.0.2+dfsg1-1~bpo9+1} date Jo 09 mai 2019 23:56:19 +0300
;FORMAT={3:3/ absolute / metric / suppress leading zeros}
FMAT,2
METRIC,TZ
T1C0.400
T2C0.800
T3C1.000
T4C1.300
T5C2.000
T6C3.200
%
G90
G05
T1
X27250Y-77000
X27250Y-86500
X29000Y-77000
X29000Y-86500
X30750Y-77000
X30750Y-86500
X31500Y-53800
X31500Y-56200
X31500Y-58800
X31500Y-63250
X32500Y-79000
X32500Y-81550
X34300Y-91250
X35500Y-77000
X35500Y-82500
X37000Y-84500
X38500Y-84500
X38500Y-87500
X42000Y-71710
X42000Y-76500
X42700Y-80750
X44290Y-74000
X44290Y-80750
X44750Y-53245
X44750Y-57500
X44750Y-64500
X50500Y-76500
X50500Y-80750
X53000Y-60745
X53000Y-74000
X55250Y-53245
X55250Y-57500
X55250Y-64500
X56500Y-68500
X56750Y-80750
X56750Y-82500
X61000Y-54500
X61000Y-59595
X62000Y-72000
X63500Y-55785
X63500Y-77330
X63500Y-79000
X64750Y-80750
X65500Y-58500
X67000Y-67700
X67500Y-86750
X68500Y-58500
X70500Y-53245
X70500Y-86750
X70540Y-57540
X73500Y-86750
T2
X45500Y-89500
X45500Y-91500
X45500Y-94500
X45500Y-96500
X48000Y-89500
X48000Y-94500
X48000Y-96500
X50500Y-89500
X50500Y-94500
X50500Y-96500
X53000Y-94500
X53000Y-96500
X55500Y-94500
X55500Y-96500
X58000Y-94500
X58000Y-96500
X58750Y-89500
X58750Y-91500
X60500Y-89500
X60500Y-91500
X60500Y-94500
X60500Y-96500
T3
X73000Y-77860
X73000Y-80400
X73000Y-82940
X73000Y-55000
X73000Y-57540
X73000Y-60080
X73000Y-62620
X73000Y-65160
X73000Y-67700
X73000Y-70240
X73000Y-72780
X73000Y-75320
X62840Y-62620
X62840Y-65160
X62840Y-67700
X28000Y-74160
X30540Y-74160
X33080Y-74160
X35620Y-74160
X38160Y-74160
X28250Y-60000
X28250Y-63040
T4
X55850Y-89000
X64000Y-90500
X64000Y-95500
X42000Y-90500
X42000Y-95500
T5
X49000Y-60745
T6
X27750Y-95500
X72250Y-95500
T0
M30
